<svg width="428.368" height="553.545" viewBox="0 0 428.368 553.545" xmlns="http://www.w3.org/2000/svg"><g id="svgGroup" stroke-linecap="round" fill-rule="evenodd" font-size="9pt" stroke="#000" stroke-width="0.25mm" fill="#1c7ed6" style="stroke:#000;stroke-width:0.25mm;fill:#1c7ed6"><path d="M 428.368 0 L 325.243 0 L 260.743 378.75 Q 257.743 396.75 249.868 413.25 Q 241.993 429.75 229.993 442.125 Q 217.993 454.875 201.868 462.188 Q 186.529 469.143 168.137 469.143 A 98.526 98.526 0 0 1 166.243 469.125 A 102.707 102.707 0 0 1 152.902 468.056 Q 141.853 466.392 133.805 462.188 A 51.852 51.852 0 0 1 118.828 450.642 A 48.748 48.748 0 0 1 114.118 444.375 A 58.323 58.323 0 0 1 107.116 429.097 A 76.289 76.289 0 0 1 104.743 418.313 Q 102.493 403.125 103.243 385.5 L 0.118 385.125 A 266.531 266.531 0 0 0 0.001 392.961 Q 0.001 411.869 2.767 428.918 A 180.605 180.605 0 0 0 8.743 454.312 A 143.014 143.014 0 0 0 25.802 490.571 A 127.195 127.195 0 0 0 38.743 507 A 128.855 128.855 0 0 0 80.381 537.55 A 153.099 153.099 0 0 0 88.618 541.125 A 167.768 167.768 0 0 0 125.216 550.947 A 224.602 224.602 0 0 0 157.618 553.5 A 228.996 228.996 0 0 0 161.979 553.542 Q 198.786 553.542 231.61 541.594 A 194.006 194.006 0 0 0 231.868 541.5 Q 266.743 528.75 294.493 505.125 Q 321.868 481.875 340.243 449.438 Q 358.618 417 364.243 378.375 L 428.368 0 Z" vector-effect="non-scaling-stroke"/></g></svg>